<svg width="115" height="24" viewBox="0 0 115 24" fill="none" xmlns="http://www.w3.org/2000/svg">
<g filter="url(#filter0_d_3_376)">
<path d="M6.84 10.8V8.68H12.76C13.4667 8.68 14.0267 8.49333 14.44 8.12C14.8533 7.73333 15.06 7.2 15.06 6.52C15.06 5.81333 14.8533 5.27333 14.44 4.9C14.0267 4.52667 13.4667 4.34 12.76 4.34H7.16V15H4.5V2.06H12.52C13.24 2.06 13.9133 2.14667 14.54 2.32C15.18 2.49333 15.7333 2.76 16.2 3.12C16.68 3.48 17.0533 3.94 17.32 4.5C17.5867 5.06 17.72 5.73333 17.72 6.52C17.72 7.29333 17.5867 7.95333 17.32 8.5C17.0533 9.04667 16.68 9.49333 16.2 9.84C15.7333 10.1733 15.18 10.42 14.54 10.58C13.9133 10.7267 13.24 10.8 12.52 10.8H6.84ZM24.3916 15.22C23.4049 15.22 22.5049 15.0067 21.6916 14.58C20.8916 14.14 20.2516 13.5333 19.7716 12.76C19.3049 11.9733 19.0716 11.0667 19.0716 10.04C19.0716 8.98667 19.3116 8.07333 19.7916 7.3C20.2716 6.52667 20.9182 5.92667 21.7316 5.5C22.5582 5.06 23.4916 4.84 24.5316 4.84C25.6782 4.84 26.5982 5.07333 27.2916 5.54C27.9982 5.99333 28.5116 6.61333 28.8316 7.4C29.1516 8.18667 29.3116 9.06667 29.3116 10.04C29.3116 10.6267 29.2182 11.2267 29.0316 11.84C28.8449 12.44 28.5582 13 28.1716 13.52C27.7849 14.0267 27.2782 14.44 26.6516 14.76C26.0249 15.0667 25.2716 15.22 24.3916 15.22ZM25.2316 13.22C26.0182 13.22 26.6982 13.0867 27.2716 12.82C27.8449 12.5533 28.2849 12.18 28.5916 11.7C28.8982 11.22 29.0516 10.6667 29.0516 10.04C29.0516 9.36 28.8916 8.78667 28.5716 8.32C28.2649 7.84 27.8249 7.48 27.2516 7.24C26.6916 6.98667 26.0182 6.86 25.2316 6.86C24.1249 6.86 23.2649 7.15333 22.6516 7.74C22.0382 8.31333 21.7316 9.08 21.7316 10.04C21.7316 10.68 21.8782 11.24 22.1716 11.72C22.4649 12.1867 22.8716 12.5533 23.3916 12.82C23.9249 13.0867 24.5382 13.22 25.2316 13.22ZM29.0516 5.06H31.6516V15H29.2316C29.2316 15 29.2116 14.8733 29.1716 14.62C29.1449 14.3533 29.1182 14.02 29.0916 13.62C29.0649 13.22 29.0516 12.8267 29.0516 12.44V5.06ZM33.3047 5.06H41.0247V7.08H33.3047V5.06ZM35.8647 2.34H38.4647V15H35.8647V2.34ZM45.6566 0.699999V2.98H42.6366V0.699999H45.6566ZM42.8366 5.06H45.4366V15H42.8366V5.06ZM48.0281 5.06H50.6281V15H48.0281V5.06ZM55.2481 4.84C55.8615 4.84 56.4281 4.92 56.9481 5.08C57.4681 5.24 57.9215 5.48667 58.3081 5.82C58.6948 6.15333 58.9948 6.58 59.2081 7.1C59.4215 7.60667 59.5281 8.21333 59.5281 8.92V15H56.9281V9.38C56.9281 8.54 56.7215 7.92667 56.3081 7.54C55.9081 7.14 55.2481 6.94 54.3281 6.94C53.6348 6.94 53.0081 7.07333 52.4481 7.34C51.8881 7.60667 51.4348 7.94667 51.0881 8.36C50.7415 8.76 50.5415 9.18 50.4881 9.62L50.4681 8.6C50.5348 8.13333 50.6881 7.68 50.9281 7.24C51.1681 6.8 51.4881 6.4 51.8881 6.04C52.3015 5.66667 52.7881 5.37333 53.3481 5.16C53.9081 4.94667 54.5415 4.84 55.2481 4.84ZM61.4953 11.7H63.8953C64.042 12.1533 64.342 12.5267 64.7953 12.82C65.262 13.1 65.8686 13.24 66.6153 13.24C67.122 13.24 67.5153 13.1933 67.7953 13.1C68.0753 13.0067 68.2686 12.8733 68.3753 12.7C68.482 12.5133 68.5353 12.3067 68.5353 12.08C68.5353 11.8 68.4486 11.5867 68.2753 11.44C68.102 11.28 67.8353 11.1533 67.4753 11.06C67.1153 10.9667 66.6553 10.88 66.0953 10.8C65.5353 10.7067 64.9953 10.5933 64.4753 10.46C63.9553 10.3267 63.4953 10.1533 63.0953 9.94C62.6953 9.71333 62.3753 9.43333 62.1353 9.1C61.9086 8.75333 61.7953 8.33333 61.7953 7.84C61.7953 7.36 61.9086 6.93333 62.1353 6.56C62.3753 6.18667 62.702 5.87333 63.1153 5.62C63.542 5.36667 64.0353 5.17333 64.5953 5.04C65.1686 4.90667 65.782 4.84 66.4353 4.84C67.422 4.84 68.242 4.98667 68.8953 5.28C69.5486 5.56 70.0353 5.96 70.3553 6.48C70.6886 6.98667 70.8553 7.57333 70.8553 8.24H68.5553C68.4486 7.74667 68.2353 7.39333 67.9153 7.18C67.5953 6.95333 67.102 6.84 66.4353 6.84C65.782 6.84 65.2886 6.94 64.9553 7.14C64.622 7.34 64.4553 7.61333 64.4553 7.96C64.4553 8.24 64.5553 8.46 64.7553 8.62C64.9686 8.76667 65.2753 8.88667 65.6753 8.98C66.0886 9.07333 66.602 9.17333 67.2153 9.28C67.7353 9.38667 68.2286 9.50667 68.6953 9.64C69.1753 9.77333 69.602 9.94667 69.9753 10.16C70.3486 10.36 70.642 10.6333 70.8553 10.98C71.082 11.3133 71.1953 11.74 71.1953 12.26C71.1953 12.9 71.0086 13.44 70.6353 13.88C70.2753 14.32 69.7553 14.66 69.0753 14.9C68.3953 15.1267 67.582 15.24 66.6353 15.24C65.7953 15.24 65.0686 15.1533 64.4553 14.98C63.8553 14.7933 63.3553 14.56 62.9553 14.28C62.5553 13.9867 62.242 13.68 62.0153 13.36C61.802 13.0267 61.6553 12.7133 61.5753 12.42C61.4953 12.1267 61.4686 11.8867 61.4953 11.7Z" fill="black"/>
</g>
<g filter="url(#filter1_d_3_376)">
<path d="M103.062 2.5345C103.384 1.66389 104.616 1.66389 104.938 2.53451L106.001 5.40803C106.102 5.68175 106.318 5.89756 106.592 5.99885L109.465 7.06215C110.336 7.38431 110.336 8.61569 109.465 8.93785L106.592 10.0012C106.318 10.1024 106.102 10.3182 106.001 10.592L104.938 13.4655C104.616 14.3361 103.384 14.3361 103.062 13.4655L101.999 10.592C101.898 10.3182 101.682 10.1024 101.408 10.0012L98.5345 8.93785C97.6639 8.61569 97.6639 7.38431 98.5345 7.06215L101.408 5.99885C101.682 5.89756 101.898 5.68175 101.999 5.40803L103.062 2.5345Z" fill="black"/>
</g>
<defs>
<filter id="filter0_d_3_376" x="0.5" y="0.700012" width="74.6953" height="22.54" filterUnits="userSpaceOnUse" color-interpolation-filters="sRGB">
<feFlood flood-opacity="0" result="BackgroundImageFix"/>
<feColorMatrix in="SourceAlpha" type="matrix" values="0 0 0 0 0 0 0 0 0 0 0 0 0 0 0 0 0 0 127 0" result="hardAlpha"/>
<feOffset dy="4"/>
<feGaussianBlur stdDeviation="2"/>
<feComposite in2="hardAlpha" operator="out"/>
<feColorMatrix type="matrix" values="0 0 0 0 0 0 0 0 0 0 0 0 0 0 0 0 0 0 0.25 0"/>
<feBlend mode="normal" in2="BackgroundImageFix" result="effect1_dropShadow_3_376"/>
<feBlend mode="normal" in="SourceGraphic" in2="effect1_dropShadow_3_376" result="shape"/>
</filter>
<filter id="filter1_d_3_376" x="93.8816" y="1.88153" width="20.2368" height="20.2369" filterUnits="userSpaceOnUse" color-interpolation-filters="sRGB">
<feFlood flood-opacity="0" result="BackgroundImageFix"/>
<feColorMatrix in="SourceAlpha" type="matrix" values="0 0 0 0 0 0 0 0 0 0 0 0 0 0 0 0 0 0 127 0" result="hardAlpha"/>
<feOffset dy="4"/>
<feGaussianBlur stdDeviation="2"/>
<feComposite in2="hardAlpha" operator="out"/>
<feColorMatrix type="matrix" values="0 0 0 0 0 0 0 0 0 0 0 0 0 0 0 0 0 0 0.25 0"/>
<feBlend mode="normal" in2="BackgroundImageFix" result="effect1_dropShadow_3_376"/>
<feBlend mode="normal" in="SourceGraphic" in2="effect1_dropShadow_3_376" result="shape"/>
</filter>
</defs>
</svg>
